<svg width="20" height="19" viewBox="0 0 20 19" fill="none" xmlns="http://www.w3.org/2000/svg">
<path fill-rule="evenodd" clip-rule="evenodd" d="M18.8758 18.3153C19.0415 18.1512 19.042 17.8835 18.8768 17.7188L15.145 13.9983C16.4159 12.5845 17.1944 10.7259 17.1944 8.67857C17.1944 4.2776 13.6133 0.707306 9.19885 0.707306C4.78443 0.707306 1.20325 4.2776 1.20325 8.67857C1.20325 13.0796 4.78443 16.6498 9.19885 16.6498C11.2609 16.6498 13.1293 15.8653 14.5475 14.5899L18.2832 18.3142C18.4468 18.4774 18.7115 18.4779 18.8758 18.3153ZM2.04489 8.67857C2.04489 4.74748 5.25575 1.54639 9.19885 1.54639C13.1419 1.54639 16.3528 4.74748 16.3528 8.67857C16.3528 12.6097 13.1419 15.8108 9.19885 15.8108C5.25575 15.8108 2.04489 12.6097 2.04489 8.67857Z" fill="#333333" stroke="#333333" stroke-width="0.852466" stroke-linecap="round" stroke-linejoin="round"/>
</svg>
