<svg width="16" height="20" viewBox="0 0 16 20" fill="none" xmlns="http://www.w3.org/2000/svg">
<path fill-rule="evenodd" clip-rule="evenodd" d="M7.89149 2.23086C6.87701 2.23086 6.0546 3.05076 6.0546 4.06216V5.05949H4.5264V4.06216C4.5264 2.20932 6.033 0.707306 7.89149 0.707306C9.74998 0.707306 11.2566 2.20932 11.2566 4.06216V5.05949H9.72838V4.06216C9.72838 3.05076 8.90598 2.23086 7.89149 2.23086ZM12.4121 6.58307H2.97001C2.43202 6.58307 1.98675 7.0001 1.9532 7.53541L1.55146 13.9436C1.42316 15.9902 3.05349 17.7203 5.11032 17.7203H10.2718C12.3286 17.7203 13.9589 15.9902 13.8306 13.9436L13.4289 7.53541C13.3953 7.0001 12.9501 6.58307 12.4121 6.58307ZM2.97001 5.05952C1.62503 5.05952 0.511869 6.1021 0.427971 7.44038L0.0262365 13.8486C-0.157051 16.7723 2.17199 19.2439 5.11032 19.2439H10.2718C13.2101 19.2439 15.5391 16.7723 15.3559 13.8486L14.9541 7.44038C14.8702 6.1021 13.7571 5.05952 12.4121 5.05952H2.97001ZM9.72811 8.45041C9.72811 9.46181 8.9057 10.2817 7.89122 10.2817C6.87673 10.2817 6.05433 9.46181 6.05433 8.45041L6.05433 8.25095C6.05433 7.83023 5.71223 7.48917 5.29023 7.48917C4.86823 7.48917 4.52613 7.83023 4.52613 8.25095V8.45041C4.52613 10.3032 6.03273 11.8053 7.89122 11.8053C9.74971 11.8053 11.2563 10.3032 11.2563 8.45041V8.25095C11.2563 7.83023 10.9142 7.48917 10.4922 7.48917C10.0702 7.48917 9.72811 7.83023 9.72811 8.25095V8.45041Z" fill="#333333"/>
</svg>
